<svg width="720" height="520" viewBox="0 0 720 520" fill="none" xmlns="http://www.w3.org/2000/svg">
  <rect width="720" height="520" rx="36" fill="#EAF7FF"/>
  <circle cx="133" cy="112" r="66" fill="#CDEEE7"/>
  <circle cx="594" cy="406" r="88" fill="#DDEBFF"/>
  <rect x="118" y="149" width="484" height="271" rx="26" fill="#ffffff" stroke="#D3E6F3" stroke-width="10"/>
  <rect x="151" y="183" width="143" height="203" rx="22" fill="#113857"/>
  <circle cx="222" cy="233" r="36" fill="#FFD4B8"/>
  <path d="M176 340C176 301.892 206.892 271 245 271H199C237.108 271 268 301.892 268 340V386H176V340Z" fill="#5AB6A3"/>
  <rect x="200" y="291" width="43" height="85" rx="18" fill="#ffffff"/>
  <rect x="329" y="199" width="237" height="34" rx="17" fill="#E6F3FF"/>
  <rect x="329" y="257" width="193" height="26" rx="13" fill="#EEF7FB"/>
  <rect x="329" y="304" width="209" height="26" rx="13" fill="#EEF7FB"/>
  <rect x="329" y="351" width="142" height="26" rx="13" fill="#EEF7FB"/>
  <circle cx="525" cy="355" r="38" fill="#0E8F7C"/>
  <path d="M524.999 336V373" stroke="white" stroke-width="12" stroke-linecap="round"/>
  <path d="M543.5 354.5H506.5" stroke="white" stroke-width="12" stroke-linecap="round"/>
  <rect x="560" y="76" width="84" height="84" rx="22" fill="#0E8F7C"/>
  <path d="M602 96V140" stroke="white" stroke-width="14" stroke-linecap="round"/>
  <path d="M624 118H580" stroke="white" stroke-width="14" stroke-linecap="round"/>
</svg>